CD_DA

CATALOG "0652637280326"
CD_TEXT {
  LANGUAGE_MAP {
    0: 9
  }
  LANGUAGE 0 {
    TITLE "MOUNTAIN BATTLES"
    PERFORMER "THE BREEDERS"
    DISC_ID "CADD2803CD"
    SIZE_INFO { 1,  1, 20,  0, 16,  3,  0,  0,  0,  0,  1,  0,
                0,  0,  0,  0,  0,  0,  0,  3, 22,  0,  0,  0,
                0,  0,  0,  0,  9,  0,  0,  0,  0,  0,  0,  0}
  }
}

// Track 1
TRACK AUDIO
NO COPY
NO PRE_EMPHASIS
TWO_CHANNEL_AUDIO
ISRC "GBAFL0700213"
CD_TEXT {
  LANGUAGE 0 {
    TITLE "OVERGLAZED"
    PERFORMER ""
  }
}
FILE "data.wav" 0 02:14:51


// Track 2
TRACK AUDIO
NO COPY
NO PRE_EMPHASIS
TWO_CHANNEL_AUDIO
ISRC "GBAFL0700214"
CD_TEXT {
  LANGUAGE 0 {
    TITLE "BANG ON"
    PERFORMER ""
  }
}
FILE "data.wav" 02:14:51 02:03:23
START 00:00:50


// Track 3
TRACK AUDIO
NO COPY
NO PRE_EMPHASIS
TWO_CHANNEL_AUDIO
ISRC "GBAFL0700215"
CD_TEXT {
  LANGUAGE 0 {
    TITLE "NIGHT OF JOY"
    PERFORMER ""
  }
}
FILE "data.wav" 04:17:74 03:26:23
START 00:00:35


// Track 4
TRACK AUDIO
NO COPY
NO PRE_EMPHASIS
TWO_CHANNEL_AUDIO
ISRC "GBAFL0700216"
CD_TEXT {
  LANGUAGE 0 {
    TITLE "WE'RE GONNA RISE"
    PERFORMER ""
  }
}
FILE "data.wav" 07:44:22 03:53:17


// Track 5
TRACK AUDIO
NO COPY
NO PRE_EMPHASIS
TWO_CHANNEL_AUDIO
ISRC "GBAFL0700217"
CD_TEXT {
  LANGUAGE 0 {
    TITLE "GERMAN STUDIES"
    PERFORMER ""
  }
}
FILE "data.wav" 11:37:39 02:14:15


// Track 6
TRACK AUDIO
NO COPY
NO PRE_EMPHASIS
TWO_CHANNEL_AUDIO
ISRC "GBAFL0700218"
CD_TEXT {
  LANGUAGE 0 {
    TITLE "SPARK"
    PERFORMER ""
  }
}
FILE "data.wav" 13:51:54 02:39:41
START 00:01:59


// Track 7
TRACK AUDIO
NO COPY
NO PRE_EMPHASIS
TWO_CHANNEL_AUDIO
ISRC "GBAFL0700219"
CD_TEXT {
  LANGUAGE 0 {
    TITLE "INSTANBUL"
    PERFORMER ""
  }
}
FILE "data.wav" 16:31:20 02:58:74
START 00:01:29


// Track 8
TRACK AUDIO
NO COPY
NO PRE_EMPHASIS
TWO_CHANNEL_AUDIO
ISRC "GBAFL0700220"
CD_TEXT {
  LANGUAGE 0 {
    TITLE "WALK IT OFF"
    PERFORMER ""
  }
}
FILE "data.wav" 19:30:19 02:44:50


// Track 9
TRACK AUDIO
NO COPY
NO PRE_EMPHASIS
TWO_CHANNEL_AUDIO
ISRC "GBAFL0700221"
CD_TEXT {
  LANGUAGE 0 {
    TITLE "REGLAME ESTA NOCHE"
    PERFORMER ""
  }
}
FILE "data.wav" 22:14:69 02:51:24
START 00:01:33


// Track 10
TRACK AUDIO
NO COPY
NO PRE_EMPHASIS
TWO_CHANNEL_AUDIO
ISRC "GBAFL0700222"
CD_TEXT {
  LANGUAGE 0 {
    TITLE "HERE NO MORE"
    PERFORMER ""
  }
}
FILE "data.wav" 25:06:18 02:40:46
START 00:01:58


// Track 11
TRACK AUDIO
NO COPY
NO PRE_EMPHASIS
TWO_CHANNEL_AUDIO
ISRC "GBAFL0700223"
CD_TEXT {
  LANGUAGE 0 {
    TITLE "NO WAY"
    PERFORMER ""
  }
}
FILE "data.wav" 27:46:64 02:32:50


// Track 12
TRACK AUDIO
NO COPY
NO PRE_EMPHASIS
TWO_CHANNEL_AUDIO
ISRC "GBAFL0700224"
CD_TEXT {
  LANGUAGE 0 {
    TITLE "IT'S THE LOVE"
    PERFORMER ""
  }
}
FILE "data.wav" 30:19:39 02:28:17


// Track 13
TRACK AUDIO
NO COPY
NO PRE_EMPHASIS
TWO_CHANNEL_AUDIO
ISRC "GBAFL0700225"
CD_TEXT {
  LANGUAGE 0 {
    TITLE "MOUNTAIN BATTLES"
    PERFORMER ""
  }
}
FILE "data.wav" 32:47:56 03:53:66

